<svg xmlns="http://www.w3.org/2000/svg" width="64" height="77" viewBox="0 0 64 77"><g><g><g><g><path fill="#81b3d2" d="M38.644 36.515V25.539h22.287v10.976zm0 36.512V39.562h19.367v33.465zm-2.984 0h-7.174V25.54h7.174zM3.046 36.516V25.539h22.447v10.976zm3.09 36.512V39.562h19.358v33.465zm6.955-64.885c.112-3.595 5.743-6.57 8.814-3.886 3.856 3.37 5.713 11.105 7.119 16.557-3.249-1.54-6.328-2.788-9.493-4.9-2.225-1.485-6.544-4.431-6.44-7.771zm34.577 1.012c.393 2.756-3.4 5.255-5.086 6.42-2.523 1.745-4.928 2.644-7.287 4.056.884-3.69 2.549-13.011 7.118-13.685 2.103-.31 4.982 1.299 5.255 3.209zm13.429 13.348H36.312c13.813-6.9 14.917-11.251 14.408-13.685-1.162-3.963-5.692-7.023-10.002-5.407-5.569 2.089-7.137 10.388-8.644 16.387-1.924-6.07-3.784-13.814-8.136-17.737C22.677.922 20.843-.204 18.175.032c-4.026.356-9.802 5.382-7.458 10.98 2.251 5.379 9.687 8.778 14.578 11.49H2.879A2.882 2.882 0 0 0 0 25.37v11.322a2.882 2.882 0 0 0 2.879 2.869h.274V76h57.841V39.56h.103a2.882 2.882 0 0 0 2.88-2.868V25.37a2.882 2.882 0 0 0-2.88-2.87z"/></g></g></g></g></svg>