<svg xmlns="http://www.w3.org/2000/svg" width="75" height="72" viewBox="0 0 75 72"><g><g><g><g><path fill="#81b3d2" d="M42.712 44.134V62.11H32.597V44.134zM29.66 65.033h16V41.21h-16z"/></g><g><path fill="#81b3d2" d="M54.062 16.492V2.924H62v21.47zM12.997 69.076V28.534L37.498 4.149 62 28.534v40.542zm59.782-29.823l2.076-2.068-9.91-9.865V0H51.133v13.567L37.503 0 .15 37.185l2.077 2.068 7.833-7.795v37.618H6.123V72h63.883v-2.924h-5.06V31.458z"/></g><g><path fill="#81b3d2" d="M54.935 51.094h3v-3.909h-3zm-5.938 0h3v-3.909h-3zm5.938-5.962h3v-3.919h-3zm-5.938 0h3v-3.919h-3zm-25.999 5.962h3v-3.909h-3zm-5.938 0h3v-3.909h-3zm5.938-5.962h3v-3.919h-3zm-5.938 0h3v-3.919h-3zm20.59-22.994c2.741 0 4.964 2.214 4.964 4.945 0 2.732-2.223 4.948-4.964 4.948-2.743 0-4.965-2.216-4.965-4.948 0-2.731 2.223-4.945 4.965-4.945zm-7.745 4.945c0 4.261 3.47 7.713 7.75 7.713 4.279 0 7.75-3.452 7.75-7.713 0-4.259-3.471-7.713-7.75-7.713-4.281 0-7.75 3.454-7.75 7.713z"/></g></g></g></g></svg>